<mxfile host="app.diagrams.net" modified="2020-10-27T18:59:48.063Z" agent="5.0 (Windows NT 10.0; Win64; x64) AppleWebKit/537.36 (KHTML, like Gecko) Chrome/85.0.4183.121 Safari/537.36 OPR/71.0.3770.284" etag="YqWB81iVGGCAKDZJ1WC8" version="13.8.5" type="github">
  <diagram id="C5RBs43oDa-KdzZeNtuy" name="Page-1">
    <mxGraphModel dx="828" dy="452" grid="1" gridSize="10" guides="1" tooltips="1" connect="1" arrows="1" fold="1" page="1" pageScale="1" pageWidth="827" pageHeight="1169" math="0" shadow="0">
      <root>
        <mxCell id="WIyWlLk6GJQsqaUBKTNV-0" />
        <mxCell id="WIyWlLk6GJQsqaUBKTNV-1" parent="WIyWlLk6GJQsqaUBKTNV-0" />
        <mxCell id="WIyWlLk6GJQsqaUBKTNV-3" value="&lt;font style=&quot;font-size: 9px&quot;&gt;Receber dados do Motorista APP Infolog (Condusit).&lt;/font&gt;" style="rounded=1;whiteSpace=wrap;html=1;fontSize=12;glass=0;strokeWidth=1;shadow=0;" parent="WIyWlLk6GJQsqaUBKTNV-1" vertex="1">
          <mxGeometry x="280" y="60" width="120" height="40" as="geometry" />
        </mxCell>
        <mxCell id="y66LHP-h-Sourv15JNUe-5" value="" style="strokeWidth=2;html=1;shape=mxgraph.flowchart.start_2;whiteSpace=wrap;shadow=0;sketch=0;fillColor=#000000;" vertex="1" parent="WIyWlLk6GJQsqaUBKTNV-1">
          <mxGeometry x="330" y="10" width="20" height="20" as="geometry" />
        </mxCell>
        <mxCell id="y66LHP-h-Sourv15JNUe-6" value="&lt;font style=&quot;font-size: 9px&quot;&gt;Serviço Condusit retorno para imagens&lt;/font&gt;" style="strokeWidth=2;html=1;shape=mxgraph.flowchart.stored_data;whiteSpace=wrap;" vertex="1" parent="WIyWlLk6GJQsqaUBKTNV-1">
          <mxGeometry x="100" y="150" width="100" height="60" as="geometry" />
        </mxCell>
        <mxCell id="y66LHP-h-Sourv15JNUe-8" value="&lt;font style=&quot;font-size: 9px&quot;&gt;Motorista tem imagens (BD Condusit)?&lt;/font&gt;" style="strokeWidth=2;html=1;shape=mxgraph.flowchart.decision;whiteSpace=wrap;shadow=0;sketch=0;gradientColor=none;fillColor=#FFFFFF;" vertex="1" parent="WIyWlLk6GJQsqaUBKTNV-1">
          <mxGeometry x="295.5" y="130" width="89" height="100" as="geometry" />
        </mxCell>
        <mxCell id="y66LHP-h-Sourv15JNUe-9" value="" style="endArrow=classic;html=1;" edge="1" parent="WIyWlLk6GJQsqaUBKTNV-1">
          <mxGeometry width="50" height="50" relative="1" as="geometry">
            <mxPoint x="290" y="179.5" as="sourcePoint" />
            <mxPoint x="200" y="179.5" as="targetPoint" />
          </mxGeometry>
        </mxCell>
        <mxCell id="y66LHP-h-Sourv15JNUe-10" value="Sim" style="text;html=1;strokeColor=none;fillColor=none;align=center;verticalAlign=middle;whiteSpace=wrap;rounded=0;shadow=0;sketch=0;" vertex="1" parent="WIyWlLk6GJQsqaUBKTNV-1">
          <mxGeometry x="228" y="150" width="40" height="20" as="geometry" />
        </mxCell>
        <mxCell id="y66LHP-h-Sourv15JNUe-11" value="" style="endArrow=classic;html=1;entryX=0.5;entryY=0;entryDx=0;entryDy=0;exitX=0.5;exitY=1;exitDx=0;exitDy=0;exitPerimeter=0;" edge="1" parent="WIyWlLk6GJQsqaUBKTNV-1" source="y66LHP-h-Sourv15JNUe-5" target="WIyWlLk6GJQsqaUBKTNV-3">
          <mxGeometry width="50" height="50" relative="1" as="geometry">
            <mxPoint x="437" y="42" as="sourcePoint" />
            <mxPoint x="437" y="62" as="targetPoint" />
          </mxGeometry>
        </mxCell>
        <mxCell id="y66LHP-h-Sourv15JNUe-12" value="" style="endArrow=classic;html=1;exitX=0.5;exitY=1;exitDx=0;exitDy=0;" edge="1" parent="WIyWlLk6GJQsqaUBKTNV-1" source="WIyWlLk6GJQsqaUBKTNV-3" target="y66LHP-h-Sourv15JNUe-8">
          <mxGeometry width="50" height="50" relative="1" as="geometry">
            <mxPoint x="392" y="110" as="sourcePoint" />
            <mxPoint x="392" y="140" as="targetPoint" />
          </mxGeometry>
        </mxCell>
        <mxCell id="y66LHP-h-Sourv15JNUe-14" value="" style="endArrow=classic;html=1;exitX=0.5;exitY=1;exitDx=0;exitDy=0;exitPerimeter=0;" edge="1" parent="WIyWlLk6GJQsqaUBKTNV-1" source="y66LHP-h-Sourv15JNUe-8">
          <mxGeometry width="50" height="50" relative="1" as="geometry">
            <mxPoint x="390" y="250" as="sourcePoint" />
            <mxPoint x="340" y="290" as="targetPoint" />
          </mxGeometry>
        </mxCell>
        <mxCell id="y66LHP-h-Sourv15JNUe-15" value="&lt;font style=&quot;font-size: 9px&quot;&gt;Base intermediária&amp;nbsp;&lt;/font&gt;" style="shape=cylinder3;whiteSpace=wrap;html=1;boundedLbl=1;backgroundOutline=1;size=15;shadow=0;sketch=0;strokeColor=#000000;fillColor=#FFFFFF;gradientColor=none;" vertex="1" parent="WIyWlLk6GJQsqaUBKTNV-1">
          <mxGeometry x="310" y="290" width="60" height="80" as="geometry" />
        </mxCell>
        <mxCell id="y66LHP-h-Sourv15JNUe-17" value="Não" style="text;html=1;strokeColor=none;fillColor=none;align=center;verticalAlign=middle;whiteSpace=wrap;rounded=0;shadow=0;sketch=0;" vertex="1" parent="WIyWlLk6GJQsqaUBKTNV-1">
          <mxGeometry x="344.5" y="260" width="40" height="20" as="geometry" />
        </mxCell>
      </root>
    </mxGraphModel>
  </diagram>
</mxfile>
